<svg width="241" height="219" viewBox="0 0 241 219" fill="none" xmlns="http://www.w3.org/2000/svg">
<g filter="url(#filter0_d)">
<g filter="url(#filter1_d)">
<path fill-rule="evenodd" clip-rule="evenodd" d="M142.497 12C139.459 12 136.997 14.4624 136.997 17.5V71.5C136.997 74.5376 139.459 77 142.497 77H162.497V94L186.497 77H221.497C224.534 77 226.997 74.5376 226.997 71.5V17.5C226.997 14.4624 224.534 12 221.497 12H142.497Z" fill="white"/>
</g>
<path d="M161.421 38.2031L165.112 48.0117L168.795 38.2031H171.669V51H169.454V46.7812L169.674 41.1387L165.894 51H164.303L160.533 41.1475L160.753 46.7812V51H158.538V38.2031H161.421ZM178.287 51.1758C176.933 51.1758 175.835 50.751 174.991 49.9014C174.153 49.0459 173.734 47.9092 173.734 46.4912V46.2275C173.734 45.2783 173.916 44.4316 174.279 43.6875C174.648 42.9375 175.164 42.3545 175.826 41.9385C176.488 41.5225 177.226 41.3145 178.041 41.3145C179.336 41.3145 180.335 41.7275 181.038 42.5537C181.747 43.3799 182.101 44.5488 182.101 46.0605V46.9219H175.887C175.952 47.707 176.213 48.3281 176.67 48.7852C177.133 49.2422 177.713 49.4707 178.41 49.4707C179.388 49.4707 180.185 49.0752 180.801 48.2842L181.952 49.3828C181.571 49.9512 181.061 50.3936 180.423 50.71C179.79 51.0205 179.078 51.1758 178.287 51.1758ZM178.032 43.0283C177.446 43.0283 176.971 43.2334 176.608 43.6436C176.251 44.0537 176.022 44.625 175.923 45.3574H179.992V45.1992C179.945 44.4844 179.755 43.9453 179.421 43.582C179.087 43.2129 178.624 43.0283 178.032 43.0283ZM185.872 42.5273C186.569 41.7188 187.451 41.3145 188.517 41.3145C190.545 41.3145 191.573 42.4717 191.602 44.7861V51H189.467V44.8652C189.467 44.209 189.323 43.7461 189.036 43.4766C188.755 43.2012 188.339 43.0635 187.788 43.0635C186.932 43.0635 186.294 43.4443 185.872 44.2061V51H183.736V37.5H185.872V42.5273ZM195.1 48.75C195.499 48.75 195.806 48.8643 196.023 49.0928C196.24 49.3154 196.348 49.5967 196.348 49.9365C196.348 50.2705 196.24 50.5488 196.023 50.7715C195.806 50.9883 195.499 51.0967 195.1 51.0967C194.719 51.0967 194.418 50.9883 194.195 50.7715C193.972 50.5547 193.861 50.2764 193.861 49.9365C193.861 49.5967 193.969 49.3154 194.186 49.0928C194.403 48.8643 194.708 48.75 195.1 48.75ZM200.128 48.75C200.526 48.75 200.834 48.8643 201.051 49.0928C201.267 49.3154 201.376 49.5967 201.376 49.9365C201.376 50.2705 201.267 50.5488 201.051 50.7715C200.834 50.9883 200.526 51.0967 200.128 51.0967C199.747 51.0967 199.445 50.9883 199.222 50.7715C199 50.5547 198.888 50.2764 198.888 49.9365C198.888 49.5967 198.997 49.3154 199.214 49.0928C199.43 48.8643 199.735 48.75 200.128 48.75ZM205.155 48.75C205.553 48.75 205.861 48.8643 206.078 49.0928C206.295 49.3154 206.403 49.5967 206.403 49.9365C206.403 50.2705 206.295 50.5488 206.078 50.7715C205.861 50.9883 205.553 51.0967 205.155 51.0967C204.774 51.0967 204.472 50.9883 204.25 50.7715C204.027 50.5547 203.916 50.2764 203.916 49.9365C203.916 49.5967 204.024 49.3154 204.241 49.0928C204.458 48.8643 204.762 48.75 205.155 48.75Z" fill="#212121"/>
<path d="M113.117 96.4987L119.648 88.999L109.099 80.9992L113.117 70.9995" stroke="#007B95" stroke-width="6" stroke-linecap="round" stroke-linejoin="round"/>
<path fill-rule="evenodd" clip-rule="evenodd" d="M81.1088 150.305H67.6951C62.3612 150.305 57.9968 145.961 57.9968 140.652C57.9968 135.343 62.3612 130.998 67.6951 130.998H81.1088C86.4437 130.998 90.8081 135.343 90.8081 140.652C90.8081 145.961 86.4437 150.305 81.1088 150.305Z" fill="#2E425A"/>
<path d="M133.556 168.551C131.531 163.095 123.85 159.875 116.4 161.358C108.951 162.84 104.553 168.465 106.577 173.92L116.792 201.441C118.816 206.896 119.497 208.46 128.69 208.46C132.582 208.46 138.516 208.46 141.873 208.46C146.675 208.46 148.15 205.371 143.77 196.072L133.556 168.551Z" fill="#2E425A"/>
<path d="M122.065 194.534C145.061 194.534 163.876 175.808 163.876 152.921V130.459C163.876 107.572 145.061 88.8455 122.065 88.8455H118.047C95.0502 88.8455 76.2353 107.572 76.2353 130.459V152.921C76.2353 175.808 95.0502 194.534 118.047 194.534H122.065Z" fill="#007B95"/>
<path d="M120.076 194.996C142.22 194.996 160.338 176.215 160.338 153.261V130.734C160.338 107.78 142.22 88.9994 120.076 88.9994H116.207C94.0619 88.9994 75.9438 107.78 75.9438 130.734V153.261C75.9438 176.215 94.0619 194.996 116.207 194.996H120.076Z" fill="#1AB2D2"/>
<path fill-rule="evenodd" clip-rule="evenodd" d="M173.747 148.239H160.733V128.932H173.747C179.082 128.932 183.446 133.277 183.446 138.586C183.446 143.896 179.082 148.239 173.747 148.239Z" fill="#2E425A"/>
<path d="M123.938 63.3837C123.938 57.6489 119.267 53 113.504 53C107.742 53 103.07 57.6489 103.07 63.3837C103.07 69.1185 107.742 73.7684 113.504 73.7684C119.267 73.7684 123.938 69.1185 123.938 63.3837Z" fill="#1AB2D2"/>
<path fill-rule="evenodd" clip-rule="evenodd" d="M97.0422 149.497C102.591 149.497 107.089 145.02 107.089 139.497C107.089 133.975 102.591 129.498 97.0422 129.498C91.4934 129.498 86.9952 133.975 86.9952 139.497C86.9952 145.02 91.4934 149.497 97.0422 149.497ZM97.0422 147.497C99.2617 147.497 101.061 145.706 101.061 143.497C101.061 141.288 99.2617 139.497 97.0422 139.497C94.8227 139.497 93.0234 141.288 93.0234 143.497C93.0234 145.706 94.8227 147.497 97.0422 147.497Z" fill="#19141E"/>
<path fill-rule="evenodd" clip-rule="evenodd" d="M129.192 149.497C134.741 149.497 139.239 145.02 139.239 139.497C139.239 133.975 134.741 129.498 129.192 129.498C123.644 129.498 119.145 133.975 119.145 139.497C119.145 145.02 123.644 149.497 129.192 149.497ZM129.192 147.497C131.412 147.497 133.211 145.706 133.211 143.497C133.211 141.288 131.412 139.497 129.192 139.497C126.973 139.497 125.174 141.288 125.174 143.497C125.174 145.706 126.973 147.497 129.192 147.497Z" fill="#19141E"/>
<path d="M88.9968 120.5L107.497 120" stroke="#19141E" stroke-width="5"/>
<path d="M118.997 120.5H119.997L137.497 120" stroke="#19141E" stroke-width="5"/>
<path d="M127.997 167V167C120.748 165.352 113.23 165.276 105.948 166.775L99.9968 168" stroke="#19141E" stroke-width="5"/>
</g>
<defs>
<filter id="filter0_d" x="-3.00317" y="-3" width="248" height="227" filterUnits="userSpaceOnUse" color-interpolation-filters="sRGB">
<feFlood flood-opacity="0" result="BackgroundImageFix"/>
<feColorMatrix in="SourceAlpha" type="matrix" values="0 0 0 0 0 0 0 0 0 0 0 0 0 0 0 0 0 0 127 0"/>
<feOffset dy="1"/>
<feGaussianBlur stdDeviation="2"/>
<feColorMatrix type="matrix" values="0 0 0 0 0 0 0 0 0 0 0 0 0 0 0 0 0 0 0.2 0"/>
<feBlend mode="normal" in2="BackgroundImageFix" result="effect1_dropShadow"/>
<feBlend mode="normal" in="SourceGraphic" in2="effect1_dropShadow" result="shape"/>
</filter>
<filter id="filter1_d" x="132.997" y="9" width="98" height="90" filterUnits="userSpaceOnUse" color-interpolation-filters="sRGB">
<feFlood flood-opacity="0" result="BackgroundImageFix"/>
<feColorMatrix in="SourceAlpha" type="matrix" values="0 0 0 0 0 0 0 0 0 0 0 0 0 0 0 0 0 0 127 0"/>
<feOffset dy="1"/>
<feGaussianBlur stdDeviation="2"/>
<feColorMatrix type="matrix" values="0 0 0 0 0 0 0 0 0 0 0 0 0 0 0 0 0 0 0.2 0"/>
<feBlend mode="normal" in2="BackgroundImageFix" result="effect1_dropShadow"/>
<feBlend mode="normal" in="SourceGraphic" in2="effect1_dropShadow" result="shape"/>
</filter>
</defs>
</svg>
