<svg width="329" height="334" viewBox="0 0 329 334" fill="none" xmlns="http://www.w3.org/2000/svg">
<g filter="url(#filter0_d)">
<path d="M153.136 117.332L160.523 108.82L148.591 99.7405L153.136 88.391" stroke="#007B95" stroke-width="6" stroke-linecap="round" stroke-linejoin="round"/>
<path fill-rule="evenodd" clip-rule="evenodd" d="M116.933 178.402H101.761C95.7283 178.402 90.792 173.471 90.792 167.445C90.792 161.419 95.7283 156.488 101.761 156.488H116.933C122.967 156.488 127.903 161.419 127.903 167.445C127.903 173.471 122.967 178.402 116.933 178.402Z" fill="#2E425A"/>
<path d="M176.253 199.11C173.963 192.918 165.276 189.263 156.85 190.946C148.423 192.629 143.449 199.012 145.739 205.204L157.292 236.44C159.582 242.632 160.352 244.407 170.75 244.407C175.152 244.407 181.864 244.407 185.661 244.407C191.092 244.407 192.76 240.901 187.806 230.346L176.253 199.11Z" fill="#2E425A"/>
<path d="M163.257 228.601C189.266 228.601 210.547 207.347 210.547 181.37V155.877C210.547 129.9 189.266 108.646 163.257 108.646H158.712C132.701 108.646 111.421 129.9 111.421 155.877V181.37C111.421 207.347 132.701 228.601 158.712 228.601H163.257Z" fill="#007B95"/>
<path d="M161.007 229.125C186.053 229.125 206.545 207.808 206.545 181.756V156.189C206.545 130.136 186.053 108.82 161.007 108.82H156.63C131.583 108.82 111.091 130.136 111.091 156.189V181.756C111.091 207.808 131.583 229.125 156.63 229.125H161.007Z" fill="#1AB2D2"/>
<path fill-rule="evenodd" clip-rule="evenodd" d="M221.711 176.057H206.992V154.143H221.711C227.746 154.143 232.682 159.075 232.682 165.1C232.682 171.127 227.746 176.057 221.711 176.057Z" fill="#2E425A"/>
<path d="M165.375 79.7472C165.375 73.2383 160.092 67.9619 153.574 67.9619C147.057 67.9619 141.773 73.2383 141.773 79.7472C141.773 86.2561 147.057 91.5337 153.574 91.5337C160.092 91.5337 165.375 86.2561 165.375 79.7472Z" fill="#1AB2D2"/>
<path d="M124.727 144.571L125.646 143.908C131.271 139.851 138.796 139.617 144.661 143.317L145.75 144.003" stroke="#19141E" stroke-width="5"/>
<path d="M158.818 144.571L159.737 143.908C165.362 139.851 172.887 139.617 178.752 143.317L179.841 144.003" stroke="#19141E" stroke-width="5"/>
<path d="M172.454 190.536V190.536C162.116 198.067 148.222 198.501 137.434 191.629L137.227 191.497" stroke="#FF0000" stroke-width="5"/>
<ellipse cx="134.954" cy="166.135" rx="11.3636" ry="11.3495" fill="#19141E"/>
<ellipse cx="134.955" cy="166.675" rx="4.54546" ry="4.53979" fill="#1AB2D2"/>
<ellipse cx="171.318" cy="166.135" rx="11.3636" ry="11.3495" fill="#19141E"/>
<ellipse cx="171.318" cy="166.675" rx="4.54546" ry="4.53979" fill="#1AB2D2"/>
<g filter="url(#filter1_d)">
<path fill-rule="evenodd" clip-rule="evenodd" d="M176.818 3C173.781 3 171.318 5.46243 171.318 8.49999V71.2716C171.318 74.3092 173.781 76.7716 176.818 76.7716H200.296V95.3356L226.536 76.7716H319.227C322.265 76.7716 324.727 74.3092 324.727 71.2716V8.5C324.727 5.46243 322.265 3 319.227 3H176.818Z" fill="white"/>
</g>
<path d="M197.154 36H195.263V26.8672L192.474 27.8203V26.2188L196.911 24.5859H197.154V36ZM208.521 31.2109C208.521 32.8464 208.213 34.0807 207.599 34.9141C206.989 35.7422 206.06 36.1562 204.81 36.1562C203.581 36.1562 202.654 35.7526 202.029 34.9453C201.409 34.1328 201.091 32.9323 201.075 31.3438V29.375C201.075 27.7396 201.38 26.513 201.989 25.6953C202.604 24.8776 203.539 24.4688 204.794 24.4688C206.039 24.4688 206.966 24.8672 207.575 25.6641C208.19 26.4609 208.505 27.6536 208.521 29.2422V31.2109ZM206.622 29.0859C206.622 28.0182 206.476 27.237 206.185 26.7422C205.893 26.2422 205.43 25.9922 204.794 25.9922C204.174 25.9922 203.719 26.2292 203.427 26.7031C203.135 27.1719 202.982 27.9062 202.966 28.9062V31.4844C202.966 32.5469 203.114 33.3385 203.411 33.8594C203.708 34.3802 204.174 34.6406 204.81 34.6406C205.419 34.6406 205.87 34.401 206.161 33.9219C206.453 33.4375 206.607 32.6823 206.622 31.6562V29.0859ZM222.239 26.2188H218.693V36H216.732V26.2188H213.216V24.625H222.239V26.2188ZM227.466 29.2812C227.216 29.2396 226.958 29.2188 226.693 29.2188C225.823 29.2188 225.237 29.5521 224.935 30.2188V36H223.036V27.5469H224.849L224.896 28.4922C225.354 27.7578 225.989 27.3906 226.802 27.3906C227.073 27.3906 227.297 27.4271 227.474 27.5L227.466 29.2812ZM233.786 35.1719C233.229 35.8281 232.437 36.1562 231.411 36.1562C230.495 36.1562 229.799 35.888 229.325 35.3516C228.857 34.8151 228.622 34.0391 228.622 33.0234V27.5469H230.521V33C230.521 34.0729 230.966 34.6094 231.857 34.6094C232.779 34.6094 233.401 34.2786 233.724 33.6172V27.5469H235.622V36H233.833L233.786 35.1719ZM241.279 36.1562C240.075 36.1562 239.099 35.7786 238.349 35.0234C237.604 34.263 237.232 33.2526 237.232 31.9922V31.7578C237.232 30.9141 237.393 30.1615 237.716 29.5C238.044 28.8333 238.502 28.3151 239.091 27.9453C239.68 27.5755 240.336 27.3906 241.06 27.3906C242.211 27.3906 243.099 27.7578 243.724 28.4922C244.354 29.2266 244.669 30.2656 244.669 31.6094V32.375H239.146C239.203 33.0729 239.435 33.625 239.841 34.0312C240.252 34.4375 240.768 34.6406 241.388 34.6406C242.258 34.6406 242.966 34.2891 243.513 33.5859L244.536 34.5625C244.198 35.0677 243.745 35.4609 243.177 35.7422C242.614 36.0182 241.982 36.1562 241.279 36.1562ZM241.052 28.9141C240.531 28.9141 240.109 29.0964 239.786 29.4609C239.469 29.8255 239.265 30.3333 239.177 30.9844H242.794V30.8438C242.752 30.2083 242.583 29.7292 242.286 29.4062C241.989 29.0781 241.578 28.9141 241.052 28.9141ZM249.779 31.6953C249.779 30.8672 249.943 30.1224 250.271 29.4609C250.599 28.7943 251.06 28.2839 251.654 27.9297C252.247 27.5703 252.93 27.3906 253.7 27.3906C254.841 27.3906 255.765 27.7578 256.474 28.4922C257.187 29.2266 257.573 30.2005 257.63 31.4141L257.638 31.8594C257.638 32.6927 257.476 33.4375 257.154 34.0938C256.836 34.75 256.377 35.2578 255.779 35.6172C255.185 35.9766 254.497 36.1562 253.716 36.1562C252.523 36.1562 251.568 35.7604 250.849 34.9688C250.135 34.1719 249.779 33.112 249.779 31.7891V31.6953ZM251.677 31.8594C251.677 32.7292 251.857 33.4115 252.216 33.9062C252.575 34.3958 253.075 34.6406 253.716 34.6406C254.357 34.6406 254.854 34.3906 255.208 33.8906C255.568 33.3906 255.747 32.6589 255.747 31.6953C255.747 30.8411 255.562 30.1641 255.193 29.6641C254.828 29.1641 254.331 28.9141 253.7 28.9141C253.081 28.9141 252.588 29.1615 252.224 29.6562C251.859 30.1458 251.677 30.8802 251.677 31.8594ZM263.669 29.2812C263.419 29.2396 263.161 29.2188 262.896 29.2188C262.026 29.2188 261.44 29.5521 261.138 30.2188V36H259.239V27.5469H261.052L261.099 28.4922C261.557 27.7578 262.193 27.3906 263.005 27.3906C263.276 27.3906 263.5 27.4271 263.677 27.5L263.669 29.2812ZM275.591 31.1797H271.013V36H269.036V24.625H276.263V26.2188H271.013V29.6016H275.591V31.1797ZM282.435 36C282.351 35.8385 282.279 35.5755 282.216 35.2109C281.612 35.8411 280.872 36.1562 279.997 36.1562C279.148 36.1562 278.456 35.9141 277.919 35.4297C277.383 34.9453 277.114 34.3464 277.114 33.6328C277.114 32.7318 277.448 32.0417 278.114 31.5625C278.786 31.0781 279.745 30.8359 280.989 30.8359H282.154V30.2812C282.154 29.8438 282.031 29.4948 281.786 29.2344C281.542 28.9688 281.169 28.8359 280.669 28.8359C280.237 28.8359 279.883 28.9453 279.607 29.1641C279.331 29.3776 279.193 29.651 279.193 29.9844H277.294C277.294 29.5208 277.448 29.0885 277.755 28.6875C278.062 28.2812 278.479 27.9635 279.005 27.7344C279.536 27.5052 280.127 27.3906 280.779 27.3906C281.768 27.3906 282.557 27.6406 283.146 28.1406C283.734 28.6354 284.036 29.3333 284.052 30.2344V34.0469C284.052 34.8073 284.159 35.4141 284.372 35.8672V36H282.435ZM280.349 34.6328C280.724 34.6328 281.075 34.5417 281.404 34.3594C281.737 34.1771 281.987 33.9323 282.154 33.625V32.0312H281.13C280.427 32.0312 279.898 32.1536 279.544 32.3984C279.19 32.6432 279.013 32.9896 279.013 33.4375C279.013 33.8021 279.133 34.0938 279.372 34.3125C279.617 34.526 279.943 34.6328 280.349 34.6328ZM288.06 36H286.161V24H288.06V36ZM294.872 33.7031C294.872 33.3646 294.732 33.1068 294.45 32.9297C294.174 32.7526 293.713 32.5964 293.068 32.4609C292.422 32.3255 291.883 32.1536 291.45 31.9453C290.502 31.487 290.029 30.8229 290.029 29.9531C290.029 29.224 290.336 28.6146 290.95 28.125C291.565 27.6354 292.346 27.3906 293.294 27.3906C294.305 27.3906 295.12 27.6406 295.739 28.1406C296.364 28.6406 296.677 29.2891 296.677 30.0859H294.779C294.779 29.7214 294.643 29.4193 294.372 29.1797C294.101 28.9349 293.742 28.8125 293.294 28.8125C292.877 28.8125 292.536 28.9089 292.271 29.1016C292.01 29.2943 291.88 29.5521 291.88 29.875C291.88 30.1667 292.002 30.3932 292.247 30.5547C292.492 30.7161 292.987 30.8802 293.732 31.0469C294.476 31.2083 295.06 31.4036 295.482 31.6328C295.909 31.8568 296.224 32.1276 296.427 32.4453C296.635 32.763 296.739 33.1484 296.739 33.6016C296.739 34.362 296.424 34.9792 295.794 35.4531C295.164 35.9219 294.338 36.1562 293.318 36.1562C292.625 36.1562 292.008 36.0312 291.466 35.7812C290.924 35.5312 290.502 35.1875 290.2 34.75C289.898 34.3125 289.747 33.8411 289.747 33.3359H291.591C291.617 33.7839 291.786 34.1302 292.099 34.375C292.411 34.6146 292.825 34.7344 293.341 34.7344C293.841 34.7344 294.221 34.6406 294.482 34.4531C294.742 34.2604 294.872 34.0104 294.872 33.7031ZM302.122 36.1562C300.919 36.1562 299.943 35.7786 299.193 35.0234C298.448 34.263 298.075 33.2526 298.075 31.9922V31.7578C298.075 30.9141 298.237 30.1615 298.56 29.5C298.888 28.8333 299.346 28.3151 299.935 27.9453C300.523 27.5755 301.18 27.3906 301.904 27.3906C303.055 27.3906 303.943 27.7578 304.568 28.4922C305.198 29.2266 305.513 30.2656 305.513 31.6094V32.375H299.989C300.047 33.0729 300.279 33.625 300.685 34.0312C301.096 34.4375 301.612 34.6406 302.232 34.6406C303.101 34.6406 303.81 34.2891 304.357 33.5859L305.38 34.5625C305.042 35.0677 304.588 35.4609 304.021 35.7422C303.458 36.0182 302.825 36.1562 302.122 36.1562ZM301.896 28.9141C301.375 28.9141 300.953 29.0964 300.63 29.4609C300.312 29.8255 300.109 30.3333 300.021 30.9844H303.638V30.8438C303.596 30.2083 303.427 29.7292 303.13 29.4062C302.833 29.0781 302.422 28.9141 301.896 28.9141ZM213.935 50.7031C213.935 49.3802 214.237 48.3307 214.841 47.5547C215.445 46.7786 216.263 46.3906 217.294 46.3906C218.237 46.3906 218.984 46.7214 219.536 47.3828L219.646 46.5469H221.333V58.25H219.435V54.2812C218.883 54.8646 218.164 55.1562 217.279 55.1562C216.268 55.1562 215.458 54.763 214.849 53.9766C214.239 53.1849 213.935 52.0938 213.935 50.7031ZM215.833 50.8672C215.833 51.7318 216.002 52.4115 216.341 52.9062C216.685 53.3958 217.159 53.6406 217.763 53.6406C218.513 53.6406 219.07 53.3203 219.435 52.6797V48.8359C219.07 48.2214 218.518 47.9141 217.779 47.9141C217.174 47.9141 216.698 48.1562 216.349 48.6406C216.005 49.125 215.833 49.8672 215.833 50.8672ZM228.505 54.1719C227.948 54.8281 227.156 55.1562 226.13 55.1562C225.213 55.1562 224.518 54.888 224.044 54.3516C223.575 53.8151 223.341 53.0391 223.341 52.0234V46.5469H225.239V52C225.239 53.0729 225.685 53.6094 226.575 53.6094C227.497 53.6094 228.12 53.2786 228.443 52.6172V46.5469H230.341V55H228.552L228.505 54.1719ZM235.997 55.1562C234.794 55.1562 233.818 54.7786 233.068 54.0234C232.323 53.263 231.95 52.2526 231.95 50.9922V50.7578C231.95 49.9141 232.112 49.1615 232.435 48.5C232.763 47.8333 233.221 47.3151 233.81 46.9453C234.398 46.5755 235.055 46.3906 235.779 46.3906C236.93 46.3906 237.818 46.7578 238.443 47.4922C239.073 48.2266 239.388 49.2656 239.388 50.6094V51.375H233.864C233.922 52.0729 234.154 52.625 234.56 53.0312C234.971 53.4375 235.487 53.6406 236.107 53.6406C236.976 53.6406 237.685 53.2891 238.232 52.5859L239.255 53.5625C238.917 54.0677 238.463 54.4609 237.896 54.7422C237.333 55.0182 236.7 55.1562 235.997 55.1562ZM235.771 47.9141C235.25 47.9141 234.828 48.0964 234.505 48.4609C234.187 48.8255 233.984 49.3333 233.896 49.9844H237.513V49.8438C237.471 49.2083 237.302 48.7292 237.005 48.4062C236.708 48.0781 236.297 47.9141 235.771 47.9141ZM245.607 52.7031C245.607 52.3646 245.466 52.1068 245.185 51.9297C244.909 51.7526 244.448 51.5964 243.802 51.4609C243.156 51.3255 242.617 51.1536 242.185 50.9453C241.237 50.487 240.763 49.8229 240.763 48.9531C240.763 48.224 241.07 47.6146 241.685 47.125C242.299 46.6354 243.081 46.3906 244.029 46.3906C245.039 46.3906 245.854 46.6406 246.474 47.1406C247.099 47.6406 247.411 48.2891 247.411 49.0859H245.513C245.513 48.7214 245.377 48.4193 245.107 48.1797C244.836 47.9349 244.476 47.8125 244.029 47.8125C243.612 47.8125 243.271 47.9089 243.005 48.1016C242.745 48.2943 242.614 48.5521 242.614 48.875C242.614 49.1667 242.737 49.3932 242.982 49.5547C243.226 49.7161 243.721 49.8802 244.466 50.0469C245.211 50.2083 245.794 50.4036 246.216 50.6328C246.643 50.8568 246.958 51.1276 247.161 51.4453C247.37 51.763 247.474 52.1484 247.474 52.6016C247.474 53.362 247.159 53.9792 246.529 54.4531C245.898 54.9219 245.073 55.1562 244.052 55.1562C243.359 55.1562 242.742 55.0312 242.2 54.7812C241.659 54.5312 241.237 54.1875 240.935 53.75C240.633 53.3125 240.482 52.8411 240.482 52.3359H242.325C242.351 52.7839 242.521 53.1302 242.833 53.375C243.146 53.6146 243.56 53.7344 244.075 53.7344C244.575 53.7344 244.956 53.6406 245.216 53.4531C245.476 53.2604 245.607 53.0104 245.607 52.7031ZM251.513 44.4922V46.5469H253.005V47.9531H251.513V52.6719C251.513 52.9948 251.575 53.2292 251.7 53.375C251.831 53.5156 252.06 53.5859 252.388 53.5859C252.607 53.5859 252.828 53.5599 253.052 53.5078V54.9766C252.62 55.0964 252.203 55.1562 251.802 55.1562C250.344 55.1562 249.614 54.3516 249.614 52.7422V47.9531H248.224V46.5469H249.614V44.4922H251.513ZM256.482 55H254.583V46.5469H256.482V55ZM254.466 44.3516C254.466 44.0599 254.557 43.8177 254.739 43.625C254.927 43.4323 255.193 43.3359 255.536 43.3359C255.88 43.3359 256.146 43.4323 256.333 43.625C256.521 43.8177 256.614 44.0599 256.614 44.3516C256.614 44.638 256.521 44.8776 256.333 45.0703C256.146 45.2578 255.88 45.3516 255.536 45.3516C255.193 45.3516 254.927 45.2578 254.739 45.0703C254.557 44.8776 254.466 44.638 254.466 44.3516ZM258.2 50.6953C258.2 49.8672 258.364 49.1224 258.693 48.4609C259.021 47.7943 259.482 47.2839 260.075 46.9297C260.669 46.5703 261.351 46.3906 262.122 46.3906C263.263 46.3906 264.187 46.7578 264.896 47.4922C265.609 48.2266 265.995 49.2005 266.052 50.4141L266.06 50.8594C266.06 51.6927 265.898 52.4375 265.575 53.0938C265.258 53.75 264.799 54.2578 264.2 54.6172C263.607 54.9766 262.919 55.1562 262.138 55.1562C260.945 55.1562 259.989 54.7604 259.271 53.9688C258.557 53.1719 258.2 52.112 258.2 50.7891V50.6953ZM260.099 50.8594C260.099 51.7292 260.279 52.4115 260.638 52.9062C260.997 53.3958 261.497 53.6406 262.138 53.6406C262.779 53.6406 263.276 53.3906 263.63 52.8906C263.989 52.3906 264.169 51.6589 264.169 50.6953C264.169 49.8411 263.984 49.1641 263.614 48.6641C263.25 48.1641 262.752 47.9141 262.122 47.9141C261.502 47.9141 261.01 48.1615 260.646 48.6562C260.281 49.1458 260.099 49.8802 260.099 50.8594ZM269.427 46.5469L269.482 47.5234C270.107 46.7682 270.927 46.3906 271.943 46.3906C273.703 46.3906 274.599 47.3984 274.63 49.4141V55H272.732V49.5234C272.732 48.987 272.614 48.5911 272.38 48.3359C272.151 48.0755 271.773 47.9453 271.247 47.9453C270.482 47.9453 269.911 48.2917 269.536 48.9844V55H267.638V46.5469H269.427ZM281.31 52.7031C281.31 52.3646 281.169 52.1068 280.888 51.9297C280.612 51.7526 280.151 51.5964 279.505 51.4609C278.859 51.3255 278.32 51.1536 277.888 50.9453C276.94 50.487 276.466 49.8229 276.466 48.9531C276.466 48.224 276.773 47.6146 277.388 47.125C278.002 46.6354 278.784 46.3906 279.732 46.3906C280.742 46.3906 281.557 46.6406 282.177 47.1406C282.802 47.6406 283.114 48.2891 283.114 49.0859H281.216C281.216 48.7214 281.081 48.4193 280.81 48.1797C280.539 47.9349 280.18 47.8125 279.732 47.8125C279.315 47.8125 278.974 47.9089 278.708 48.1016C278.448 48.2943 278.318 48.5521 278.318 48.875C278.318 49.1667 278.44 49.3932 278.685 49.5547C278.93 49.7161 279.424 49.8802 280.169 50.0469C280.914 50.2083 281.497 50.4036 281.919 50.6328C282.346 50.8568 282.661 51.1276 282.864 51.4453C283.073 51.763 283.177 52.1484 283.177 52.6016C283.177 53.362 282.862 53.9792 282.232 54.4531C281.601 54.9219 280.776 55.1562 279.755 55.1562C279.062 55.1562 278.445 55.0312 277.904 54.7812C277.362 54.5312 276.94 54.1875 276.638 53.75C276.336 53.3125 276.185 52.8411 276.185 52.3359H278.029C278.055 52.7839 278.224 53.1302 278.536 53.375C278.849 53.6146 279.263 53.7344 279.779 53.7344C280.279 53.7344 280.659 53.6406 280.919 53.4531C281.18 53.2604 281.31 53.0104 281.31 52.7031Z" fill="#212121"/>
<g filter="url(#filter2_d)">
<path fill-rule="evenodd" clip-rule="evenodd" d="M152.182 329C155.219 329 157.682 326.538 157.682 323.5V260.728C157.682 257.691 155.219 255.228 152.182 255.228L122.454 255.228V235.934L95.1817 255.228L9.77271 255.228C6.73514 255.228 4.27271 257.691 4.27271 260.728L4.27271 323.5C4.27271 326.538 6.73514 329 9.7727 329H152.182Z" fill="white"/>
</g>
<path d="M40.647 284.297C40.5325 285.51 40.0845 286.458 39.3033 287.141C38.522 287.818 37.483 288.156 36.1861 288.156C35.2798 288.156 34.4804 287.943 33.7877 287.516C33.1002 287.083 32.5689 286.471 32.1939 285.68C31.8189 284.888 31.6236 283.969 31.608 282.922V281.859C31.608 280.786 31.7981 279.841 32.1783 279.023C32.5585 278.206 33.1028 277.576 33.8111 277.133C34.5246 276.69 35.3476 276.469 36.2798 276.469C37.5351 276.469 38.5455 276.81 39.3111 277.492C40.0767 278.174 40.522 279.138 40.647 280.383H38.6783C38.5845 279.565 38.345 278.977 37.9595 278.617C37.5793 278.253 37.0194 278.07 36.2798 278.07C35.4205 278.07 34.759 278.385 34.2955 279.016C33.8371 279.641 33.6028 280.56 33.5923 281.773V282.781C33.5923 284.01 33.8111 284.948 34.2486 285.594C34.6913 286.24 35.3371 286.562 36.1861 286.562C36.9621 286.562 37.5455 286.388 37.9361 286.039C38.3267 285.69 38.5741 285.109 38.6783 284.297H40.647ZM47.2877 288C47.2043 287.839 47.1314 287.576 47.0689 287.211C46.4647 287.841 45.7252 288.156 44.8502 288.156C44.0012 288.156 43.3085 287.914 42.772 287.43C42.2356 286.945 41.9673 286.346 41.9673 285.633C41.9673 284.732 42.3007 284.042 42.9673 283.562C43.6392 283.078 44.5976 282.836 45.8423 282.836H47.0064V282.281C47.0064 281.844 46.884 281.495 46.6392 281.234C46.3944 280.969 46.022 280.836 45.522 280.836C45.0897 280.836 44.7356 280.945 44.4595 281.164C44.1835 281.378 44.0455 281.651 44.0455 281.984H42.147C42.147 281.521 42.3007 281.089 42.608 280.688C42.9153 280.281 43.3319 279.964 43.858 279.734C44.3892 279.505 44.9804 279.391 45.6314 279.391C46.621 279.391 47.4101 279.641 47.9986 280.141C48.5871 280.635 48.8892 281.333 48.9048 282.234V286.047C48.9048 286.807 49.0116 287.414 49.2252 287.867V288H47.2877ZM45.2017 286.633C45.5767 286.633 45.9283 286.542 46.2564 286.359C46.5897 286.177 46.8397 285.932 47.0064 285.625V284.031H45.983C45.2798 284.031 44.7512 284.154 44.397 284.398C44.0429 284.643 43.8658 284.99 43.8658 285.438C43.8658 285.802 43.9856 286.094 44.2252 286.312C44.47 286.526 44.7955 286.633 45.2017 286.633ZM52.6548 279.547L52.7095 280.523C53.3345 279.768 54.1548 279.391 55.1705 279.391C56.9309 279.391 57.8267 280.398 57.858 282.414V288H55.9595V282.523C55.9595 281.987 55.8423 281.591 55.608 281.336C55.3788 281.076 55.0012 280.945 54.4752 280.945C53.7095 280.945 53.1392 281.292 52.7642 281.984V288H50.8658V279.547H52.6548ZM66.7408 285.281L68.4595 279.547H70.483L67.1236 289.281C66.608 290.703 65.733 291.414 64.4986 291.414C64.2226 291.414 63.9179 291.367 63.5845 291.273V289.805L63.9439 289.828C64.4231 289.828 64.7825 289.74 65.022 289.562C65.2668 289.391 65.4595 289.099 65.6002 288.688L65.8736 287.961L62.9048 279.547H64.9517L66.7408 285.281ZM71.1002 283.695C71.1002 282.867 71.2642 282.122 71.5923 281.461C71.9205 280.794 72.3814 280.284 72.9752 279.93C73.5689 279.57 74.2512 279.391 75.022 279.391C76.1627 279.391 77.0871 279.758 77.7955 280.492C78.509 281.227 78.8944 282.201 78.9517 283.414L78.9595 283.859C78.9595 284.693 78.7981 285.438 78.4752 286.094C78.1575 286.75 77.6991 287.258 77.1002 287.617C76.5064 287.977 75.8189 288.156 75.0377 288.156C73.845 288.156 72.8892 287.76 72.1705 286.969C71.4569 286.172 71.1002 285.112 71.1002 283.789V283.695ZM72.9986 283.859C72.9986 284.729 73.1783 285.411 73.5377 285.906C73.897 286.396 74.397 286.641 75.0377 286.641C75.6783 286.641 76.1757 286.391 76.5298 285.891C76.8892 285.391 77.0689 284.659 77.0689 283.695C77.0689 282.841 76.884 282.164 76.5142 281.664C76.1496 281.164 75.6522 280.914 75.022 280.914C74.4022 280.914 73.9101 281.161 73.5455 281.656C73.1809 282.146 72.9986 282.88 72.9986 283.859ZM85.6861 287.172C85.1288 287.828 84.3371 288.156 83.3111 288.156C82.3944 288.156 81.6991 287.888 81.2252 287.352C80.7564 286.815 80.522 286.039 80.522 285.023V279.547H82.4205V285C82.4205 286.073 82.8658 286.609 83.7564 286.609C84.6783 286.609 85.3007 286.279 85.6236 285.617V279.547H87.522V288H85.733L85.6861 287.172ZM98.1783 285.703C98.1783 285.365 98.0377 285.107 97.7564 284.93C97.4804 284.753 97.0194 284.596 96.3736 284.461C95.7278 284.326 95.1887 284.154 94.7564 283.945C93.8085 283.487 93.3345 282.823 93.3345 281.953C93.3345 281.224 93.6418 280.615 94.2564 280.125C94.871 279.635 95.6522 279.391 96.6002 279.391C97.6106 279.391 98.4257 279.641 99.0455 280.141C99.6705 280.641 99.983 281.289 99.983 282.086H98.0845C98.0845 281.721 97.9491 281.419 97.6783 281.18C97.4075 280.935 97.0481 280.812 96.6002 280.812C96.1835 280.812 95.8423 280.909 95.5767 281.102C95.3163 281.294 95.1861 281.552 95.1861 281.875C95.1861 282.167 95.3085 282.393 95.5533 282.555C95.7981 282.716 96.2929 282.88 97.0377 283.047C97.7825 283.208 98.3658 283.404 98.7877 283.633C99.2147 283.857 99.5298 284.128 99.733 284.445C99.9413 284.763 100.045 285.148 100.045 285.602C100.045 286.362 99.7304 286.979 99.1002 287.453C98.47 287.922 97.6444 288.156 96.6236 288.156C95.9309 288.156 95.3137 288.031 94.772 287.781C94.2304 287.531 93.8085 287.188 93.5064 286.75C93.2043 286.312 93.0533 285.841 93.0533 285.336H94.897C94.9231 285.784 95.0923 286.13 95.4048 286.375C95.7173 286.615 96.1314 286.734 96.647 286.734C97.147 286.734 97.5272 286.641 97.7877 286.453C98.0481 286.26 98.1783 286.01 98.1783 285.703ZM105.178 286.641C105.652 286.641 106.045 286.503 106.358 286.227C106.67 285.951 106.837 285.609 106.858 285.203H108.647C108.626 285.729 108.462 286.221 108.155 286.68C107.848 287.133 107.431 287.492 106.905 287.758C106.379 288.023 105.811 288.156 105.202 288.156C104.019 288.156 103.082 287.773 102.389 287.008C101.697 286.242 101.35 285.185 101.35 283.836V283.641C101.35 282.354 101.694 281.326 102.381 280.555C103.069 279.779 104.006 279.391 105.194 279.391C106.199 279.391 107.017 279.685 107.647 280.273C108.282 280.857 108.616 281.625 108.647 282.578H106.858C106.837 282.094 106.67 281.695 106.358 281.383C106.051 281.07 105.657 280.914 105.178 280.914C104.564 280.914 104.09 281.138 103.756 281.586C103.423 282.029 103.254 282.703 103.249 283.609V283.914C103.249 284.831 103.413 285.516 103.741 285.969C104.074 286.417 104.553 286.641 105.178 286.641ZM109.725 283.695C109.725 282.867 109.889 282.122 110.217 281.461C110.545 280.794 111.006 280.284 111.6 279.93C112.194 279.57 112.876 279.391 113.647 279.391C114.788 279.391 115.712 279.758 116.42 280.492C117.134 281.227 117.519 282.201 117.577 283.414L117.585 283.859C117.585 284.693 117.423 285.438 117.1 286.094C116.782 286.75 116.324 287.258 115.725 287.617C115.131 287.977 114.444 288.156 113.663 288.156C112.47 288.156 111.514 287.76 110.795 286.969C110.082 286.172 109.725 285.112 109.725 283.789V283.695ZM111.624 283.859C111.624 284.729 111.803 285.411 112.163 285.906C112.522 286.396 113.022 286.641 113.663 286.641C114.303 286.641 114.801 286.391 115.155 285.891C115.514 285.391 115.694 284.659 115.694 283.695C115.694 282.841 115.509 282.164 115.139 281.664C114.775 281.164 114.277 280.914 113.647 280.914C113.027 280.914 112.535 281.161 112.17 281.656C111.806 282.146 111.624 282.88 111.624 283.859ZM123.616 281.281C123.366 281.24 123.108 281.219 122.842 281.219C121.973 281.219 121.387 281.552 121.085 282.219V288H119.186V279.547H120.999L121.045 280.492C121.504 279.758 122.139 279.391 122.952 279.391C123.223 279.391 123.447 279.427 123.624 279.5L123.616 281.281ZM128.381 288.156C127.178 288.156 126.202 287.779 125.452 287.023C124.707 286.263 124.335 285.253 124.335 283.992V283.758C124.335 282.914 124.496 282.161 124.819 281.5C125.147 280.833 125.605 280.315 126.194 279.945C126.782 279.576 127.439 279.391 128.163 279.391C129.314 279.391 130.202 279.758 130.827 280.492C131.457 281.227 131.772 282.266 131.772 283.609V284.375H126.249C126.306 285.073 126.538 285.625 126.944 286.031C127.355 286.438 127.871 286.641 128.491 286.641C129.361 286.641 130.069 286.289 130.616 285.586L131.639 286.562C131.301 287.068 130.848 287.461 130.28 287.742C129.717 288.018 129.085 288.156 128.381 288.156ZM128.155 280.914C127.634 280.914 127.212 281.096 126.889 281.461C126.572 281.826 126.368 282.333 126.28 282.984H129.897V282.844C129.855 282.208 129.686 281.729 129.389 281.406C129.092 281.078 128.681 280.914 128.155 280.914ZM62.2955 307H60.4048V297.867L57.6158 298.82V297.219L62.0533 295.586H62.2955V307ZM73.6627 302.211C73.6627 303.846 73.3554 305.081 72.7408 305.914C72.1314 306.742 71.2017 307.156 69.9517 307.156C68.7226 307.156 67.7955 306.753 67.1705 305.945C66.5507 305.133 66.233 303.932 66.2173 302.344V300.375C66.2173 298.74 66.522 297.513 67.1314 296.695C67.746 295.878 68.6809 295.469 69.9361 295.469C71.1809 295.469 72.108 295.867 72.7173 296.664C73.3319 297.461 73.647 298.654 73.6627 300.242V302.211ZM71.7642 300.086C71.7642 299.018 71.6184 298.237 71.3267 297.742C71.0351 297.242 70.5715 296.992 69.9361 296.992C69.3163 296.992 68.8606 297.229 68.5689 297.703C68.2772 298.172 68.1236 298.906 68.108 299.906V302.484C68.108 303.547 68.2564 304.339 68.5533 304.859C68.8502 305.38 69.3163 305.641 69.9517 305.641C70.5611 305.641 71.0116 305.401 71.3033 304.922C71.595 304.438 71.7486 303.682 71.7642 302.656V300.086ZM75.9986 307.977H74.5064L78.983 295.625H80.4752L75.9986 307.977ZM86.8111 307H84.9205V297.867L82.1314 298.82V297.219L86.5689 295.586H86.8111V307ZM98.1783 302.211C98.1783 303.846 97.871 305.081 97.2564 305.914C96.647 306.742 95.7173 307.156 94.4673 307.156C93.2382 307.156 92.3111 306.753 91.6861 305.945C91.0663 305.133 90.7486 303.932 90.733 302.344V300.375C90.733 298.74 91.0377 297.513 91.647 296.695C92.2616 295.878 93.1965 295.469 94.4517 295.469C95.6965 295.469 96.6236 295.867 97.233 296.664C97.8476 297.461 98.1627 298.654 98.1783 300.242V302.211ZM96.2798 300.086C96.2798 299.018 96.134 298.237 95.8423 297.742C95.5507 297.242 95.0871 296.992 94.4517 296.992C93.8319 296.992 93.3762 297.229 93.0845 297.703C92.7929 298.172 92.6392 298.906 92.6236 299.906V302.484C92.6236 303.547 92.772 304.339 93.0689 304.859C93.3658 305.38 93.8319 305.641 94.4673 305.641C95.0767 305.641 95.5272 305.401 95.8189 304.922C96.1106 304.438 96.2642 303.682 96.2798 302.656V300.086ZM101.741 303.656C101.741 302.964 101.827 302.411 101.999 302C102.17 301.589 102.509 301.138 103.014 300.648C103.525 300.154 103.848 299.802 103.983 299.594C104.191 299.276 104.295 298.932 104.295 298.562C104.295 298.073 104.173 297.701 103.928 297.445C103.689 297.185 103.335 297.055 102.866 297.055C102.418 297.055 102.056 297.182 101.78 297.438C101.509 297.688 101.374 298.029 101.374 298.461H99.4752C99.4856 297.539 99.7981 296.81 100.413 296.273C101.032 295.737 101.85 295.469 102.866 295.469C103.913 295.469 104.728 295.734 105.311 296.266C105.9 296.797 106.194 297.539 106.194 298.492C106.194 299.341 105.798 300.177 105.006 301L104.045 301.945C103.702 302.336 103.525 302.906 103.514 303.656H101.741ZM101.608 306.086C101.608 305.779 101.704 305.531 101.897 305.344C102.09 305.151 102.35 305.055 102.678 305.055C103.012 305.055 103.275 305.154 103.467 305.352C103.66 305.544 103.756 305.789 103.756 306.086C103.756 306.372 103.663 306.612 103.475 306.805C103.288 306.997 103.022 307.094 102.678 307.094C102.335 307.094 102.069 306.997 101.881 306.805C101.699 306.612 101.608 306.372 101.608 306.086Z" fill="#212121"/>
</g>
<defs>
<filter id="filter0_d" x="-1" y="1" width="329" height="332" filterUnits="userSpaceOnUse" color-interpolation-filters="sRGB">
<feFlood flood-opacity="0" result="BackgroundImageFix"/>
<feColorMatrix in="SourceAlpha" type="matrix" values="0 0 0 0 0 0 0 0 0 0 0 0 0 0 0 0 0 0 127 0"/>
<feOffset dx="-1" dy="2"/>
<feGaussianBlur stdDeviation="1"/>
<feColorMatrix type="matrix" values="0 0 0 0 0 0 0 0 0 0 0 0 0 0 0 0 0 0 0.25 0"/>
<feBlend mode="normal" in2="BackgroundImageFix" result="effect1_dropShadow"/>
<feBlend mode="normal" in="SourceGraphic" in2="effect1_dropShadow" result="shape"/>
</filter>
<filter id="filter1_d" x="167.318" y="0" width="161.409" height="100.336" filterUnits="userSpaceOnUse" color-interpolation-filters="sRGB">
<feFlood flood-opacity="0" result="BackgroundImageFix"/>
<feColorMatrix in="SourceAlpha" type="matrix" values="0 0 0 0 0 0 0 0 0 0 0 0 0 0 0 0 0 0 127 0"/>
<feOffset dy="1"/>
<feGaussianBlur stdDeviation="2"/>
<feColorMatrix type="matrix" values="0 0 0 0 0 0 0 0 0 0 0 0 0 0 0 0 0 0 0.2 0"/>
<feBlend mode="normal" in2="BackgroundImageFix" result="effect1_dropShadow"/>
<feBlend mode="normal" in="SourceGraphic" in2="effect1_dropShadow" result="shape"/>
</filter>
<filter id="filter2_d" x="0.272705" y="232.934" width="161.409" height="101.066" filterUnits="userSpaceOnUse" color-interpolation-filters="sRGB">
<feFlood flood-opacity="0" result="BackgroundImageFix"/>
<feColorMatrix in="SourceAlpha" type="matrix" values="0 0 0 0 0 0 0 0 0 0 0 0 0 0 0 0 0 0 127 0"/>
<feOffset dy="1"/>
<feGaussianBlur stdDeviation="2"/>
<feColorMatrix type="matrix" values="0 0 0 0 0 0 0 0 0 0 0 0 0 0 0 0 0 0 0.2 0"/>
<feBlend mode="normal" in2="BackgroundImageFix" result="effect1_dropShadow"/>
<feBlend mode="normal" in="SourceGraphic" in2="effect1_dropShadow" result="shape"/>
</filter>
</defs>
</svg>
