<svg width="240" height="219" viewBox="0 0 240 219" fill="none" xmlns="http://www.w3.org/2000/svg">
<g filter="url(#filter0_d)">
<g filter="url(#filter1_d)">
<path fill-rule="evenodd" clip-rule="evenodd" d="M141.5 12C138.462 12 136 14.4624 136 17.5V71.5C136 74.5376 138.462 77 141.5 77H161.5V94L185.5 77H220.5C223.538 77 226 74.5376 226 71.5V17.5C226 14.4624 223.538 12 220.5 12H141.5Z" fill="white"/>
</g>
<path d="M168.29 49.3389C167.827 49.9424 167.186 50.3994 166.365 50.71C165.545 51.0205 164.613 51.1758 163.57 51.1758C162.498 51.1758 161.549 50.9326 160.723 50.4463C159.896 49.96 159.258 49.2656 158.807 48.3633C158.361 47.4551 158.13 46.3975 158.112 45.1904V44.1885C158.112 42.2549 158.575 40.7461 159.501 39.6621C160.427 38.5723 161.719 38.0273 163.377 38.0273C164.801 38.0273 165.932 38.3789 166.77 39.082C167.607 39.7852 168.111 40.7988 168.281 42.123H166.102C165.855 40.582 164.962 39.8115 163.421 39.8115C162.425 39.8115 161.666 40.1719 161.145 40.8926C160.629 41.6074 160.362 42.6592 160.345 44.0479V45.0322C160.345 46.415 160.635 47.4902 161.215 48.2578C161.801 49.0195 162.612 49.4004 163.649 49.4004C164.786 49.4004 165.595 49.1426 166.075 48.627V46.1221H163.438V44.4346H168.29V49.3389ZM175.506 43.4414C175.225 43.3945 174.935 43.3711 174.636 43.3711C173.657 43.3711 172.998 43.7461 172.658 44.4961V51H170.522V41.4902H172.562L172.614 42.5537C173.13 41.7275 173.845 41.3145 174.759 41.3145C175.063 41.3145 175.315 41.3555 175.515 41.4375L175.506 43.4414ZM180.867 51.1758C179.514 51.1758 178.415 50.751 177.571 49.9014C176.733 49.0459 176.314 47.9092 176.314 46.4912V46.2275C176.314 45.2783 176.496 44.4316 176.859 43.6875C177.229 42.9375 177.744 42.3545 178.406 41.9385C179.068 41.5225 179.807 41.3145 180.621 41.3145C181.916 41.3145 182.915 41.7275 183.618 42.5537C184.327 43.3799 184.682 44.5488 184.682 46.0605V46.9219H178.468C178.532 47.707 178.793 48.3281 179.25 48.7852C179.713 49.2422 180.293 49.4707 180.99 49.4707C181.969 49.4707 182.766 49.0752 183.381 48.2842L184.532 49.3828C184.151 49.9512 183.642 50.3936 183.003 50.71C182.37 51.0205 181.658 51.1758 180.867 51.1758ZM180.612 43.0283C180.026 43.0283 179.552 43.2334 179.188 43.6436C178.831 44.0537 178.603 44.625 178.503 45.3574H182.572V45.1992C182.525 44.4844 182.335 43.9453 182.001 43.582C181.667 43.2129 181.204 43.0283 180.612 43.0283ZM192.029 51C191.936 50.8184 191.854 50.5225 191.783 50.1123C191.104 50.8213 190.271 51.1758 189.287 51.1758C188.332 51.1758 187.553 50.9033 186.949 50.3584C186.346 49.8135 186.044 49.1396 186.044 48.3369C186.044 47.3232 186.419 46.5469 187.169 46.0078C187.925 45.4629 189.003 45.1904 190.403 45.1904H191.713V44.5664C191.713 44.0742 191.575 43.6816 191.3 43.3887C191.024 43.0898 190.605 42.9404 190.043 42.9404C189.557 42.9404 189.158 43.0635 188.848 43.3096C188.537 43.5498 188.382 43.8574 188.382 44.2324H186.246C186.246 43.7109 186.419 43.2246 186.765 42.7734C187.11 42.3164 187.579 41.959 188.171 41.7012C188.769 41.4434 189.434 41.3145 190.166 41.3145C191.279 41.3145 192.167 41.5957 192.829 42.1582C193.491 42.7148 193.831 43.5 193.849 44.5137V48.8027C193.849 49.6582 193.969 50.3408 194.209 50.8506V51H192.029ZM189.683 49.4619C190.104 49.4619 190.5 49.3594 190.869 49.1543C191.244 48.9492 191.525 48.6738 191.713 48.3281V46.5352H190.562C189.771 46.5352 189.176 46.6729 188.777 46.9482C188.379 47.2236 188.18 47.6133 188.18 48.1172C188.18 48.5273 188.314 48.8555 188.584 49.1016C188.859 49.3418 189.226 49.4619 189.683 49.4619ZM198.762 39.1787V41.4902H200.44V43.0723H198.762V48.3809C198.762 48.7441 198.832 49.0078 198.973 49.1719C199.119 49.3301 199.377 49.4092 199.746 49.4092C199.992 49.4092 200.241 49.3799 200.493 49.3213V50.9736C200.007 51.1084 199.538 51.1758 199.087 51.1758C197.446 51.1758 196.626 50.2705 196.626 48.46V43.0723H195.062V41.4902H196.626V39.1787H198.762ZM204.343 47.2295H202.506L202.304 38.2031H204.554L204.343 47.2295ZM202.242 49.9893C202.242 49.6553 202.351 49.3799 202.567 49.1631C202.784 48.9404 203.08 48.8291 203.455 48.8291C203.83 48.8291 204.126 48.9404 204.343 49.1631C204.56 49.3799 204.668 49.6553 204.668 49.9893C204.668 50.3115 204.562 50.5811 204.352 50.7979C204.141 51.0146 203.842 51.123 203.455 51.123C203.068 51.123 202.77 51.0146 202.559 50.7979C202.348 50.5811 202.242 50.3115 202.242 49.9893Z" fill="#212121"/>
<path d="M112.12 96.4987L118.651 88.999L108.102 80.9992L112.12 70.9995" stroke="#007B95" stroke-width="6" stroke-linecap="round" stroke-linejoin="round"/>
<path fill-rule="evenodd" clip-rule="evenodd" d="M80.112 150.305H66.6983C61.3644 150.305 57 145.961 57 140.652C57 135.343 61.3644 130.998 66.6983 130.998H80.112C85.4469 130.998 89.8113 135.343 89.8113 140.652C89.8113 145.961 85.4469 150.305 80.112 150.305Z" fill="#2E425A"/>
<path d="M132.559 168.551C130.534 163.095 122.854 159.875 115.404 161.358C107.954 162.84 103.556 168.465 105.58 173.92L115.795 201.441C117.82 206.896 118.5 208.46 127.693 208.46C131.585 208.46 137.519 208.46 140.876 208.46C145.679 208.46 147.153 205.371 142.773 196.072L132.559 168.551Z" fill="#2E425A"/>
<path d="M121.069 194.534C144.064 194.534 162.879 175.808 162.879 152.921V130.459C162.879 107.572 144.064 88.8455 121.069 88.8455H117.05C94.0533 88.8455 75.2384 107.572 75.2384 130.459V152.921C75.2384 175.808 94.0533 194.534 117.05 194.534H121.069Z" fill="#007B95"/>
<path d="M119.08 194.996C141.223 194.996 159.341 176.215 159.341 153.261V130.734C159.341 107.78 141.223 88.9994 119.08 88.9994H115.21C93.065 88.9994 74.947 107.78 74.947 130.734V153.261C74.947 176.215 93.065 194.996 115.21 194.996H119.08Z" fill="#1AB2D2"/>
<path fill-rule="evenodd" clip-rule="evenodd" d="M172.75 148.239H159.736V128.932H172.75C178.085 128.932 182.449 133.277 182.449 138.586C182.449 143.896 178.085 148.239 172.75 148.239Z" fill="#2E425A"/>
<path d="M122.941 63.3837C122.941 57.6489 118.27 53 112.507 53C106.745 53 102.074 57.6489 102.074 63.3837C102.074 69.1185 106.745 73.7684 112.507 73.7684C118.27 73.7684 122.941 69.1185 122.941 63.3837Z" fill="#1AB2D2"/>
<path fill-rule="evenodd" clip-rule="evenodd" d="M96.0453 149.497C101.594 149.497 106.092 145.02 106.092 139.497C106.092 133.975 101.594 129.498 96.0453 129.498C90.4966 129.498 85.9984 133.975 85.9984 139.497C85.9984 145.02 90.4966 149.497 96.0453 149.497ZM96.0454 147.497C98.2649 147.497 100.064 145.706 100.064 143.497C100.064 141.288 98.2649 139.497 96.0454 139.497C93.8259 139.497 92.0266 141.288 92.0266 143.497C92.0266 145.706 93.8259 147.497 96.0454 147.497Z" fill="#19141E"/>
<path fill-rule="evenodd" clip-rule="evenodd" d="M128.196 149.497C133.745 149.497 138.243 145.02 138.243 139.497C138.243 133.975 133.745 129.498 128.196 129.498C122.647 129.498 118.149 133.975 118.149 139.497C118.149 145.02 122.647 149.497 128.196 149.497ZM128.196 147.497C130.415 147.497 132.215 145.706 132.215 143.497C132.215 141.288 130.415 139.497 128.196 139.497C125.976 139.497 124.177 141.288 124.177 143.497C124.177 145.706 125.976 147.497 128.196 147.497Z" fill="#19141E"/>
<path d="M88 120.5V120.5C93.4372 116.573 100.716 116.347 106.386 119.928L106.5 120" stroke="#19141E" stroke-width="5"/>
<path d="M118 120.5V120.5C123.437 116.573 130.716 116.347 136.386 119.928L136.5 120" stroke="#19141E" stroke-width="5"/>
<path d="M130 161V161C120.905 167.634 108.673 168.016 99.1813 161.962L99 161.846" stroke="#19141E" stroke-width="5"/>
</g>
<defs>
<filter id="filter0_d" x="-4" y="-3" width="248" height="227" filterUnits="userSpaceOnUse" color-interpolation-filters="sRGB">
<feFlood flood-opacity="0" result="BackgroundImageFix"/>
<feColorMatrix in="SourceAlpha" type="matrix" values="0 0 0 0 0 0 0 0 0 0 0 0 0 0 0 0 0 0 127 0"/>
<feOffset dy="1"/>
<feGaussianBlur stdDeviation="2"/>
<feColorMatrix type="matrix" values="0 0 0 0 0 0 0 0 0 0 0 0 0 0 0 0 0 0 0.2 0"/>
<feBlend mode="normal" in2="BackgroundImageFix" result="effect1_dropShadow"/>
<feBlend mode="normal" in="SourceGraphic" in2="effect1_dropShadow" result="shape"/>
</filter>
<filter id="filter1_d" x="132" y="9" width="98" height="90" filterUnits="userSpaceOnUse" color-interpolation-filters="sRGB">
<feFlood flood-opacity="0" result="BackgroundImageFix"/>
<feColorMatrix in="SourceAlpha" type="matrix" values="0 0 0 0 0 0 0 0 0 0 0 0 0 0 0 0 0 0 127 0"/>
<feOffset dy="1"/>
<feGaussianBlur stdDeviation="2"/>
<feColorMatrix type="matrix" values="0 0 0 0 0 0 0 0 0 0 0 0 0 0 0 0 0 0 0.2 0"/>
<feBlend mode="normal" in2="BackgroundImageFix" result="effect1_dropShadow"/>
<feBlend mode="normal" in="SourceGraphic" in2="effect1_dropShadow" result="shape"/>
</filter>
</defs>
</svg>
