<svg width="240" height="219" viewBox="0 0 240 219" fill="none" xmlns="http://www.w3.org/2000/svg">
<g filter="url(#filter0_d)">
<g filter="url(#filter1_d)">
<path fill-rule="evenodd" clip-rule="evenodd" d="M141.5 12C138.462 12 136 14.4624 136 17.5V71.5C136 74.5376 138.462 77 141.5 77H161.5V94L185.5 77H220.5C223.538 77 226 74.5376 226 71.5V17.5C226 14.4624 223.538 12 220.5 12H141.5Z" fill="white"/>
</g>
<path d="M171.684 51H169.469V45.3135H163.747V51H161.523V38.2031H163.747V43.5293H169.469V38.2031H171.684V51ZM179.875 50.0684C179.248 50.8066 178.357 51.1758 177.203 51.1758C176.172 51.1758 175.39 50.874 174.856 50.2705C174.329 49.667 174.065 48.7939 174.065 47.6514V41.4902H176.201V47.625C176.201 48.832 176.702 49.4355 177.704 49.4355C178.741 49.4355 179.441 49.0635 179.805 48.3193V41.4902H181.94V51H179.928L179.875 50.0684ZM186.221 42.5273C186.918 41.7188 187.8 41.3145 188.866 41.3145C190.894 41.3145 191.922 42.4717 191.951 44.7861V51H189.815V44.8652C189.815 44.209 189.672 43.7461 189.385 43.4766C189.104 43.2012 188.688 43.0635 188.137 43.0635C187.281 43.0635 186.643 43.4443 186.221 44.2061V51H184.085V37.5H186.221V42.5273ZM196.1 47.2383C196.1 46.459 196.196 45.8379 196.39 45.375C196.583 44.9121 196.964 44.4053 197.532 43.8545C198.106 43.2979 198.47 42.9023 198.622 42.668C198.856 42.3105 198.974 41.9238 198.974 41.5078C198.974 40.957 198.836 40.5381 198.561 40.251C198.291 39.958 197.893 39.8115 197.365 39.8115C196.861 39.8115 196.454 39.9551 196.144 40.2422C195.839 40.5234 195.687 40.9072 195.687 41.3936H193.551C193.562 40.3564 193.914 39.5361 194.605 38.9326C195.303 38.3291 196.223 38.0273 197.365 38.0273C198.543 38.0273 199.46 38.3262 200.116 38.9238C200.778 39.5215 201.109 40.3564 201.109 41.4287C201.109 42.3838 200.664 43.3242 199.773 44.25L198.692 45.3135C198.306 45.7529 198.106 46.3945 198.095 47.2383H196.1ZM195.95 49.9717C195.95 49.626 196.059 49.3477 196.275 49.1367C196.492 48.9199 196.785 48.8115 197.154 48.8115C197.529 48.8115 197.825 48.9229 198.042 49.1455C198.259 49.3623 198.367 49.6377 198.367 49.9717C198.367 50.2939 198.262 50.5635 198.051 50.7803C197.84 50.9971 197.541 51.1055 197.154 51.1055C196.768 51.1055 196.469 50.9971 196.258 50.7803C196.053 50.5635 195.95 50.2939 195.95 49.9717Z" fill="#212121"/>
<path d="M112.12 96.4987L118.651 88.999L108.102 80.9992L112.12 70.9995" stroke="#007B95" stroke-width="6" stroke-linecap="round" stroke-linejoin="round"/>
<path fill-rule="evenodd" clip-rule="evenodd" d="M80.112 150.305H66.6983C61.3644 150.305 57 145.961 57 140.652C57 135.343 61.3644 130.998 66.6983 130.998H80.112C85.4469 130.998 89.8113 135.343 89.8113 140.652C89.8113 145.961 85.4469 150.305 80.112 150.305Z" fill="#2E425A"/>
<path d="M132.559 168.551C130.534 163.095 122.854 159.875 115.404 161.358C107.954 162.84 103.556 168.465 105.58 173.92L115.795 201.441C117.82 206.896 118.5 208.46 127.693 208.46C131.585 208.46 137.519 208.46 140.876 208.46C145.679 208.46 147.153 205.371 142.773 196.072L132.559 168.551Z" fill="#2E425A"/>
<path d="M121.068 194.534C144.064 194.534 162.879 175.808 162.879 152.921V130.459C162.879 107.572 144.064 88.8455 121.068 88.8455H117.05C94.0532 88.8455 75.2383 107.572 75.2383 130.459V152.921C75.2383 175.808 94.0532 194.534 117.05 194.534H121.068Z" fill="#007B95"/>
<path d="M119.079 194.996C141.223 194.996 159.341 176.215 159.341 153.261V130.734C159.341 107.78 141.223 88.9994 119.079 88.9994H115.21C93.0649 88.9994 74.9469 107.78 74.9469 130.734V153.261C74.9469 176.215 93.0649 194.996 115.21 194.996H119.079Z" fill="#1AB2D2"/>
<path fill-rule="evenodd" clip-rule="evenodd" d="M172.75 148.239H159.736V128.932H172.75C178.085 128.932 182.449 133.277 182.449 138.586C182.449 143.896 178.085 148.239 172.75 148.239Z" fill="#2E425A"/>
<path d="M122.941 63.3837C122.941 57.6489 118.27 53 112.507 53C106.745 53 102.074 57.6489 102.074 63.3837C102.074 69.1185 106.745 73.7684 112.507 73.7684C118.27 73.7684 122.941 69.1185 122.941 63.3837Z" fill="#1AB2D2"/>
<path d="M88 120.498V120.498C93.4671 116.568 100.77 116.341 106.47 119.925L106.587 119.998" stroke="#19141E" stroke-width="5"/>
<path fill-rule="evenodd" clip-rule="evenodd" d="M96.0453 149.497C101.594 149.497 106.092 145.02 106.092 139.497C106.092 133.975 101.594 129.498 96.0453 129.498C90.4966 129.498 85.9984 133.975 85.9984 139.497C85.9984 145.02 90.4966 149.497 96.0453 149.497ZM96.0454 147.497C98.2649 147.497 100.064 145.706 100.064 143.497C100.064 141.288 98.2649 139.497 96.0454 139.497C93.8259 139.497 92.0266 141.288 92.0266 143.497C92.0266 145.706 93.8259 147.497 96.0454 147.497Z" fill="#19141E"/>
<path fill-rule="evenodd" clip-rule="evenodd" d="M128.196 149.497C133.744 149.497 138.243 145.02 138.243 139.497C138.243 133.975 133.744 129.498 128.196 129.498C122.647 129.498 118.149 133.975 118.149 139.497C118.149 145.02 122.647 149.497 128.196 149.497ZM128.196 147.497C130.415 147.497 132.214 145.706 132.214 143.497C132.214 141.288 130.415 139.497 128.196 139.497C125.976 139.497 124.177 141.288 124.177 143.497C124.177 145.706 125.976 147.497 128.196 147.497Z" fill="#19141E"/>
<path d="M111.5 158L124 164" stroke="#19141E" stroke-width="5"/>
<path d="M136.5 127.5V127.5C131.063 131.427 123.784 131.653 118.114 128.072L118 128" stroke="#19141E" stroke-width="5"/>
</g>
<defs>
<filter id="filter0_d" x="-4" y="-3" width="248" height="227" filterUnits="userSpaceOnUse" color-interpolation-filters="sRGB">
<feFlood flood-opacity="0" result="BackgroundImageFix"/>
<feColorMatrix in="SourceAlpha" type="matrix" values="0 0 0 0 0 0 0 0 0 0 0 0 0 0 0 0 0 0 127 0"/>
<feOffset dy="1"/>
<feGaussianBlur stdDeviation="2"/>
<feColorMatrix type="matrix" values="0 0 0 0 0 0 0 0 0 0 0 0 0 0 0 0 0 0 0.2 0"/>
<feBlend mode="normal" in2="BackgroundImageFix" result="effect1_dropShadow"/>
<feBlend mode="normal" in="SourceGraphic" in2="effect1_dropShadow" result="shape"/>
</filter>
<filter id="filter1_d" x="132" y="9" width="98" height="90" filterUnits="userSpaceOnUse" color-interpolation-filters="sRGB">
<feFlood flood-opacity="0" result="BackgroundImageFix"/>
<feColorMatrix in="SourceAlpha" type="matrix" values="0 0 0 0 0 0 0 0 0 0 0 0 0 0 0 0 0 0 127 0"/>
<feOffset dy="1"/>
<feGaussianBlur stdDeviation="2"/>
<feColorMatrix type="matrix" values="0 0 0 0 0 0 0 0 0 0 0 0 0 0 0 0 0 0 0.2 0"/>
<feBlend mode="normal" in2="BackgroundImageFix" result="effect1_dropShadow"/>
<feBlend mode="normal" in="SourceGraphic" in2="effect1_dropShadow" result="shape"/>
</filter>
</defs>
</svg>
